<svg width="115" height="25" fill="none" xmlns="http://www.w3.org/2000/svg"><path d="M20.74 7.045c0 .6-.171 1.262-.514 1.99-.32.706-.76 1.39-1.315 2.053a12.313 12.313 0 01-1.83 1.83c-.684.534-1.368.93-2.053 1.186a8.964 8.964 0 011.605.642 6.872 6.872 0 011.508.963c.128.107.267.31.417.61.17.277.32.587.449.93.15.32.267.641.353.962.085.321.128.578.128.77 0 .6-.256 1.134-.77 1.605a6.71 6.71 0 01-1.7 1.123 11.64 11.64 0 01-1.893.641c-.6.15-1.016.225-1.252.225h-2.085c-.214 0-.546-.096-.995-.289a17.836 17.836 0 01-1.348-.61 25.962 25.962 0 01-1.219-.737c-.363-.236-.588-.407-.674-.514.065-.128.118-.406.16-.834.044-.45.076-.995.097-1.637.022-.663.032-1.39.032-2.181.022-.813.032-1.637.032-2.47 0-.835-.01-1.584-.032-2.247V9.163c0-.599-.01-1.166-.032-1.7V5.762c0-.513.043-.866.128-1.059.107-.192.15-.289.129-.289-.342 0-.866.129-1.572.385-.706.257-1.412.578-2.118.963a9.635 9.635 0 00-1.797 1.283c-.535.45-.802.877-.802 1.284 0 .492.054.898.16 1.22.107.32.16.502.16.545 0 .363-.074.673-.224.93-.15.235-.385.353-.706.353-.256 0-.46-.086-.61-.257a1.861 1.861 0 01-.32-.61 2.79 2.79 0 01-.16-.673 5.495 5.495 0 01-.033-.417c0-.834.246-1.594.738-2.278.492-.685 1.134-1.284 1.926-1.797.791-.535 1.69-.984 2.695-1.348a23.048 23.048 0 013.144-.93 24.414 24.414 0 013.112-.546 22.277 22.277 0 012.728-.192h.256a7.08 7.08 0 012.696.577 5.017 5.017 0 012.117 1.573c.043.042.064.074.064.096l.064.064c.279.32.492.578.642.77.15.171.257.342.321.513.086.15.14.31.16.482.022.17.033.385.033.641zm-2.471-.641c0-.941-.46-1.572-1.38-1.893-.92-.343-2.267-.514-4.042-.514H10.92c-.278 0-.566.022-.866.064.043.065.096.129.16.193a.766.766 0 01.225.32c.064.13.118.332.16.61.043.257.065.62.065 1.091v6.321c0 .171.043.289.128.353.107.043.46.064 1.059.064.535 0 1.166-.181 1.893-.545a9.38 9.38 0 002.118-1.508 9.603 9.603 0 001.7-2.118c.47-.791.706-1.604.706-2.438zm-1.444 11.55c0-.32-.16-.663-.481-1.026A7.456 7.456 0 0015.22 15.9a7.337 7.337 0 00-1.251-.77c-.407-.214-.706-.32-.899-.32-.492 0-.973.031-1.444.095-.47.065-.727.118-.77.16-.021.022-.042.14-.064.354-.021.214-.043.492-.064.834a94.2 94.2 0 00-.064 1.059v1.123c0 .214.021.46.064.738.043.256.128.513.257.77.128.235.3.438.513.61.235.17.535.256.898.256l.642-.064c.235 0 .556-.053.963-.16a5.83 5.83 0 001.251-.546 3.986 3.986 0 001.09-.866c.322-.364.482-.77.482-1.22zm13.377-.384c0 .15-.053.513-.16 1.09a8.258 8.258 0 01-.513 1.797 5.487 5.487 0 01-.995 1.669c-.406.492-.93.738-1.572.738-.685 0-1.23-.246-1.637-.738a4.839 4.839 0 01-.93-1.7 10.03 10.03 0 01-.417-2.118 22.525 22.525 0 01-.097-1.861c0-.557.033-1.113.097-1.669a23.67 23.67 0 00.128-1.7c0-.172-.086-.278-.257-.321a1.988 1.988 0 00-.48-.064c-.258 0-.418.032-.482.096a.476.476 0 00-.128.224l-.129 1.027a49.462 49.462 0 01-.289 1.99c-.085.62-.192 1.176-.32 1.668-.107.47-.247.855-.418 1.155-.15.278-.331.417-.545.417h-.032a.57.57 0 01-.257-.064c-.064-.043-.096-.15-.096-.321 0-.086.021-.214.064-.385.171-.749.278-1.369.321-1.861.043-.492.075-.93.096-1.316v-.608c.022-.15.032-.332.032-.546v-1.572a5.9 5.9 0 00-.064-.834l-.096-1.893a.49.49 0 01.16-.353c.107-.107.246-.203.417-.289.171-.085.353-.15.546-.192.192-.043.363-.064.513-.064.364 0 .546.235.546.705v.16l-.032.707v.192c0 .15.032.246.096.29.064.02.192.053.385.095h.096c.171.022.45.043.834.065.385.02.77.064 1.155.128a3.2 3.2 0 01.995.32c.3.129.45.322.45.578 0 .086-.022.214-.065.385-.043.15-.096.31-.16.482a5.1 5.1 0 00-.16.417 1.05 1.05 0 00-.065.256 18.233 18.233 0 00-.577 4.62c0 .129.01.364.032.707.021.342.064.695.128 1.058.064.364.16.685.289.963.128.278.288.417.481.417.32 0 .61-.192.866-.577.257-.407.482-.867.674-1.38.193-.535.342-1.07.45-1.605.128-.534.213-.93.256-1.187.043-.235.107-.374.193-.417a.575.575 0 01.288-.096c.3 0 .45.192.45.578 0 .042-.011.16-.033.352 0 .172-.01.3-.032.386z" fill="#252421"/><path d="M41.975 18.596c-.042.3-.15.653-.32 1.06a6.011 6.011 0 01-.674 1.186 3.843 3.843 0 01-.93.93 1.877 1.877 0 01-1.156.386c-.641 0-1.208-.246-1.7-.738-.47-.492-.76-1.187-.867-2.086-.128.343-.278.738-.449 1.187a6.27 6.27 0 01-.642 1.252 3.875 3.875 0 01-.898.962c-.32.278-.706.417-1.155.417a.973.973 0 01-.289-.032 1.767 1.767 0 01-.224-.096 2.218 2.218 0 00-.257-.064 1.71 1.71 0 00-.385-.032 1.85 1.85 0 01-1.316-.514c-.342-.32-.62-.738-.834-1.25a7.964 7.964 0 01-.481-1.67 12.726 12.726 0 01-.128-1.732c0-1.283.064-2.503.192-3.658.15-1.155.385-2.17.706-3.048.32-.898.738-1.604 1.251-2.117.514-.535 1.134-.803 1.861-.803.428 0 .749.043.963.129.235.064.45.15.642.256.192.086.395.182.61.29.235.106.555.192.962.256.449.257.76.567.93.93.193.343.31.717.353 1.123.064.407.086.835.064 1.284-.021.428 0 .855.064 1.283 0 .022.043.054.129.096.107.043.224.097.353.16a.677.677 0 01.32.225.426.426 0 01.161.353v.129c-.214.556-.342 1.048-.385 1.476-.043.427-.064.94-.064 1.54 0 .3.01.63.032.994.043.343.096.674.16.995.086.3.204.556.353.77a.7.7 0 00.578.289c.257 0 .481-.128.674-.385.214-.257.385-.546.513-.866a6.54 6.54 0 00.353-1.027c.107-.342.171-.6.192-.77.043-.257.15-.385.321-.385.107 0 .204.064.29.192.106.107.16.31.16.61v.257c0 .064-.011.15-.033.256zm-5.935-5.198c0-.235-.022-.513-.065-.834a3.951 3.951 0 00-.224-.898 1.807 1.807 0 00-.481-.706c-.214-.193-.503-.289-.867-.289-.599 0-1.09.278-1.476.834-.363.535-.652 1.177-.866 1.925a11.286 11.286 0 00-.417 2.279 23.34 23.34 0 00-.096 1.828c0 .343.01.76.032 1.252.043.47.107.92.192 1.347.086.428.204.792.353 1.091.171.3.385.45.642.45.62 0 1.09-.236 1.412-.706.342-.492.599-1.091.77-1.797a15.6 15.6 0 00.353-2.31c.085-.835.16-1.594.224-2.278.043-.364.14-.589.29-.674.149-.107.224-.182.224-.225v-.289z" fill="#252421"/><path d="M45.931 15.099a6.75 6.75 0 00-.802 1.508 17.7 17.7 0 00-.514 1.7c-.15.578-.278 1.166-.385 1.765a33.545 33.545 0 01-.288 1.669c-.043.128-.214.213-.514.256a4.5 4.5 0 01-.61.064c-.384 0-.705-.02-.962-.064a.903.903 0 01-.545-.288c-.129-.172-.225-.418-.289-.738a13.025 13.025 0 01-.16-1.348l.417-9.53c0-.277.15-.417.449-.417.107 0 .256.022.449.065.193.021.396.064.61.128.214.064.395.15.545.257.15.085.225.192.225.32v6.514c.021-.021.053-.107.096-.257.15-.385.331-.855.545-1.412.214-.577.45-1.123.706-1.636a8.22 8.22 0 01.802-1.315c.3-.364.6-.546.899-.546.385 0 .674.096.866.289.214.171.375.396.481.674.107.278.172.577.193.898.021.32.032.631.032.93 0 .214-.021.567-.064 1.06-.043.491-.064 1.23-.064 2.213 0 .556.053 1.06.16 1.508.107.45.321.674.642.674.235 0 .449-.107.642-.32.192-.215.363-.482.513-.803a5.43 5.43 0 00.61-2.053c.02-.407.181-.61.48-.61.193 0 .322.064.386.192a.992.992 0 01.096.45v.064a6.616 6.616 0 01-.257 1.444 5.443 5.443 0 01-.61 1.508c-.256.47-.598.866-1.026 1.187-.428.32-.952.481-1.572.481-.963 0-1.583-.342-1.861-1.026-.257-.706-.385-1.744-.385-3.113l.064-2.342z" fill="#252421"/><path d="M63.889 16.607c-.043.47-.14 1.005-.289 1.604a6.722 6.722 0 01-.61 1.7c-.256.535-.61.985-1.058 1.348-.428.364-.952.546-1.573.546-.92 0-1.593-.214-2.02-.642-.407-.428-.75-1.09-1.028-1.99l-.032.161a19.35 19.35 0 01-.32 1.123 4.05 4.05 0 01-.482 1.123 2.65 2.65 0 01-.738.802c-.3.236-.684.353-1.155.353-.32 0-.642-.064-.962-.192-.3-.107-.62-.246-.963-.417a2.998 2.998 0 01-1.155-1.027 4.86 4.86 0 01-.61-1.316 5.784 5.784 0 01-.224-1.283c-.022-.428-.032-.76-.032-.995v-.545c0-.128.032-.407.096-.834.064-.428.16-.92.289-1.476.15-.578.32-1.177.513-1.797a11.3 11.3 0 01.738-1.7c.3-.514.631-.942.995-1.284.385-.342.812-.513 1.283-.513.513 0 1.005.085 1.476.256.492.171.845.3 1.059.385.021-.385.032-.855.032-1.411a43.45 43.45 0 00.032-1.637c.021-.556.032-1.07.032-1.54V4.35c0-.556-.01-1.026-.032-1.411a6.075 6.075 0 00-.128-1.027 3.476 3.476 0 00-.16-.674 2.2 2.2 0 00-.225-.45 6.701 6.701 0 011.058-.224A8.54 8.54 0 0158.691.5c.492 0 .866.043 1.123.128.278.065.417.246.417.546 0 .128-.032.502-.096 1.123a66.91 66.91 0 00-.193 2.438 218.35 218.35 0 00-.192 3.433 85.098 85.098 0 00-.096 4.172v3.24c0 .6.01 1.177.032 1.733.021.535.064 1.016.128 1.444.086.406.203.738.353.994.15.236.364.353.642.353.62 0 1.08-.353 1.38-1.058.32-.728.577-1.861.77-3.402a1.38 1.38 0 01.128-.449c.064-.128.203-.192.417-.192.192 0 .31.128.353.385.064.235.085.47.064.706l-.032.513zm-6.77-4.652c0-.065-.054-.14-.16-.225a1.678 1.678 0 00-.354-.257 2.578 2.578 0 00-.417-.224 1.01 1.01 0 00-.385-.097c-.427 0-.813.268-1.155.803-.32.513-.599 1.155-.834 1.925-.214.77-.374 1.593-.481 2.47-.107.877-.16 1.658-.16 2.342 0 .257.01.557.031.899.022.342.075.663.16.962.086.3.204.557.354.77.15.214.353.321.61.321.277 0 .534-.16.77-.48.235-.322.449-.739.641-1.252.193-.514.364-1.091.514-1.733.17-.642.31-1.273.417-1.893.128-.642.224-1.24.288-1.797.065-.577.107-1.037.129-1.38l.032-1.155zm19.54-5.872c0 .214-.043.385-.128.513a.828.828 0 01-.321.289 1.36 1.36 0 01-.385.128 2.018 2.018 0 01-.321.032c-.342 0-.599-.17-.77-.513a9.67 9.67 0 00-.578-1.155c-.214-.428-.545-.813-.994-1.155-.428-.364-1.102-.546-2.022-.546-.556 0-1.048.118-1.476.353a3.72 3.72 0 00-1.09.899c-.279.363-.493.77-.642 1.22a4.448 4.448 0 00-.193 1.282c0 .685.118 1.316.353 1.894.257.556.61 1.09 1.059 1.604.45.492.984.984 1.604 1.476.62.47 1.294.973 2.022 1.508.62.449 1.219.909 1.796 1.38.6.47 1.123.973 1.573 1.507.47.535.844 1.113 1.123 1.733a4.59 4.59 0 01.417 1.957c0 .792-.225 1.444-.674 1.957-.428.514-.973.92-1.636 1.22a7.21 7.21 0 01-2.214.642 14.43 14.43 0 01-2.31.192c-.75 0-1.54-.064-2.375-.192a8.786 8.786 0 01-2.31-.674c-.706-.3-1.294-.695-1.765-1.188-.449-.47-.674-1.058-.674-1.764 0-.642.214-1.145.642-1.508.45-.364 1.091-.631 1.925-.802a7.565 7.565 0 01-.288.674c-.129.299-.193.716-.193 1.25 0 .6.193 1.081.578 1.445.385.363.845.641 1.38.834a6.22 6.22 0 001.636.353c.577.064 1.048.096 1.411.096.236 0 .557-.043.963-.128a6.5 6.5 0 001.251-.385 3.173 3.173 0 001.027-.674c.3-.3.45-.652.45-1.059 0-.32-.108-.652-.322-.995a5.08 5.08 0 00-.802-1.09 12.28 12.28 0 00-1.187-1.156c-.45-.385-.93-.77-1.444-1.155a89.039 89.039 0 01-2.214-1.764 18.146 18.146 0 01-1.957-1.861 9.986 9.986 0 01-1.412-1.99 4.772 4.772 0 01-.545-2.214c0-1.176.214-2.17.642-2.983.449-.835 1.016-1.509 1.7-2.022a7.24 7.24 0 012.31-1.123 8.963 8.963 0 012.439-.353c.599 0 1.22.054 1.86.16a8.526 8.526 0 011.798.418c.556.17 1.005.406 1.347.706.364.278.546.61.546.994 0 .3-.107.589-.321.867a1.407 1.407 0 00-.289.866z" fill="#252421"/><path d="M79.68 16.286c.022-1.09.054-2.203.097-3.337.042-1.133.085-2.182.128-3.144 0-.171-.171-.289-.514-.353a32.39 32.39 0 00-1.155-.193 5.697 5.697 0 01-1.155-.288c-.342-.15-.513-.385-.513-.706 0-.278.278-.439.834-.482.556-.042 1.38-.064 2.47-.064.086 0 .14-.128.161-.385.043-.256.064-.577.064-.962.022-.407.032-.835.032-1.284.022-.449.043-.866.065-1.251a9.07 9.07 0 01.096-.995c.064-.256.139-.385.224-.385.108 0 .3.022.578.064.278.043.567.107.866.193.3.064.556.15.77.257.236.107.353.224.353.353l-.353 4.17c0 .129.107.225.321.29.236.042.524.074.867.096h1.123c.406 0 .78.032 1.123.096.363.064.652.171.866.32a.646.646 0 01.353.61.737.737 0 01-.064.225c-.043.086-.097.128-.16.128-.044 0-.108-.032-.193-.096-.064-.064-.257-.096-.578-.096a27.755 27.755 0 00-1.925.128 16.03 16.03 0 00-1.187.16c-.342.043-.535.108-.578.193-.021.043-.053.3-.096.77-.021.45-.053 1.048-.096 1.797-.022.749-.043 1.615-.064 2.599-.022.963-.032 1.978-.032 3.048 0 .406.021.802.064 1.187s.107.738.192 1.059c.086.3.193.546.321.738.15.193.321.289.514.289.278 0 .534-.118.77-.353.235-.235.449-.556.641-.963.193-.406.364-.866.514-1.38.15-.513.278-1.037.385-1.572.064-.32.139-.545.224-.673a.417.417 0 01.385-.225c.15 0 .278.053.385.16.129.086.193.3.193.642 0 .214-.01.353-.032.417-.064.385-.193.92-.385 1.604a10.708 10.708 0 01-.738 1.99 6.71 6.71 0 01-1.123 1.7c-.45.492-.974.738-1.573.738-.577 0-1.08-.17-1.507-.513-.428-.32-.792-.77-1.091-1.348-.278-.599-.492-1.294-.642-2.085-.15-.813-.225-1.68-.225-2.6v-.288z" fill="#252421"/><path d="M96.731 12.917c.086-.15.236-.224.45-.224.106 0 .181.064.224.192.043.128.064.235.064.32a4.131 4.131 0 01-.449 1.798 8.067 8.067 0 01-.834 1.347c-.171.236-.364.45-.578.642a7.388 7.388 0 01-.61.545c-.02.364-.042.62-.064.77 0 .129-.01.236-.032.321-.042.321-.15.728-.32 1.22a6.148 6.148 0 01-.738 1.443c-.3.471-.674.867-1.123 1.188-.428.342-.93.513-1.508.513a4.13 4.13 0 01-.674-.064 5.388 5.388 0 01-.738-.193 4.297 4.297 0 01-.738-.256 3.238 3.238 0 01-.61-.29 4.689 4.689 0 01-1.315-1.058 5.129 5.129 0 01-.803-1.283 6.825 6.825 0 01-.352-1.412 10.92 10.92 0 01-.097-1.412c0-.77.075-1.55.225-2.342.171-.792.374-1.551.61-2.278.235-.727.502-1.38.802-1.957.3-.578.588-1.027.866-1.348.278-.3.588-.503.93-.61.343-.128.653-.192.931-.192.342 0 .684.085 1.027.256.342.172.674.385.994.642.321.257.631.556.93.899.322.32.621.641.9.962.213.235.374.62.48 1.155.108.514.193 1.038.257 1.572.043.3.075.62.097.963.02.342.032.695.032 1.059.32-.257.577-.524.77-.802.192-.3.342-.578.449-.835.128-.256.224-.491.289-.705.085-.236.17-.417.256-.546zm-3.625 2.76c0-.086-.011-.279-.032-.578 0-.3-.022-.652-.065-1.059a8.711 8.711 0 00-.16-1.251 5.086 5.086 0 00-.32-1.22 2.608 2.608 0 00-.514-.898 1.002 1.002 0 00-.802-.385c-.321 0-.631.128-.93.385a3.8 3.8 0 00-.803.995 6.216 6.216 0 00-.578 1.38 6.2 6.2 0 00-.192 1.508c0 .855.171 1.486.513 1.893.343.385.93.577 1.765.577.62 0 1.123-.096 1.508-.289.406-.192.61-.342.61-.449v-.61zm-.16 2.63c-.257.172-.61.3-1.06.386a6.245 6.245 0 01-1.123.128c-.577 0-1.026-.043-1.347-.129-.3-.085-.631-.256-.995-.513l-.032.674c0 .235.032.481.096.738s.16.492.289.706c.15.214.353.395.61.545.256.129.577.193.962.193.47 0 .867-.086 1.187-.257a2.36 2.36 0 00.802-.706 2.54 2.54 0 00.45-.898c.107-.321.16-.61.16-.866z" fill="#252421"/><path d="M105.56 17.57c0 .15-.054.513-.161 1.09a8.261 8.261 0 01-.513 1.797 5.498 5.498 0 01-.995 1.669c-.406.492-.93.738-1.572.738-.685 0-1.23-.246-1.636-.738a4.83 4.83 0 01-.93-1.7 10.03 10.03 0 01-.418-2.118 22.525 22.525 0 01-.096-1.861c0-.557.032-1.113.096-1.669a23.67 23.67 0 00.128-1.7c0-.172-.085-.278-.256-.321a1.988 1.988 0 00-.482-.064c-.256 0-.417.032-.481.096a.476.476 0 00-.128.224l-.129 1.027a49.462 49.462 0 01-.288 1.99c-.086.62-.193 1.176-.321 1.668-.107.47-.246.855-.417 1.155-.15.278-.332.417-.546.417h-.032a.57.57 0 01-.257-.064c-.064-.043-.096-.15-.096-.321 0-.086.022-.214.064-.385.171-.749.278-1.369.321-1.861.043-.492.075-.93.096-1.316v-.608c.022-.15.032-.332.032-.546v-1.572c0-.256-.02-.534-.064-.834l-.096-1.893a.49.49 0 01.16-.353c.107-.107.246-.203.418-.289.17-.085.353-.15.545-.192.193-.043.364-.064.513-.064.364 0 .546.235.546.705v.16l-.032.707v.192c0 .15.032.246.096.29.064.02.193.053.385.095h.096c.171.022.45.043.835.065.385.02.77.064 1.155.128s.716.171.994.32c.3.129.45.322.45.578 0 .086-.022.214-.065.385-.042.15-.096.31-.16.482-.064.15-.118.288-.161.417a1.087 1.087 0 00-.064.256 18.233 18.233 0 00-.577 4.62c0 .129.01.364.032.707.021.342.064.695.128 1.058.064.364.161.685.289.963.128.278.289.417.481.417.321 0 .61-.192.867-.577.256-.407.481-.867.673-1.38a11.2 11.2 0 00.45-1.605c.128-.534.213-.93.256-1.187.043-.235.107-.374.193-.417a.575.575 0 01.289-.096c.299 0 .449.192.449.578 0 .042-.011.16-.032.352 0 .172-.011.3-.032.386z" fill="#252421"/><path d="M114.156 17.152c0 .535-.096 1.134-.289 1.797a6.234 6.234 0 01-.898 1.861 5.272 5.272 0 01-1.572 1.412c-.62.385-1.369.577-2.246.577-.834 0-1.54-.15-2.118-.449a4.198 4.198 0 01-1.444-1.219 5.308 5.308 0 01-.802-1.797 10.695 10.695 0 01-.224-2.214c0-.748.085-1.572.256-2.47.171-.899.439-1.733.802-2.503.364-.791.824-1.444 1.38-1.957.556-.535 1.23-.802 2.022-.802.385 0 .748.085 1.09.256a2.884 2.884 0 011.508 1.508c.15.343.236.696.257 1.06l.032.448c0 .514-.085 1.08-.256 1.701a7.132 7.132 0 01-.738 1.7 4.986 4.986 0 01-1.188 1.316 2.656 2.656 0 01-1.604.513 3.363 3.363 0 01-.866-.128v.93c0 .15.043.364.128.642.107.278.257.556.449.834.193.257.439.492.738.706.321.193.706.29 1.155.29.621 0 1.123-.119 1.508-.354.407-.256.738-.577.995-.962s.449-.813.578-1.284c.149-.492.267-.962.353-1.412.064-.3.128-.502.192-.61.064-.106.171-.16.321-.16.321 0 .481.182.481.546v.224zm-3.786-4.973c0-.171-.053-.353-.16-.545-.086-.193-.257-.29-.514-.29-.385 0-.716.204-.994.61a6.203 6.203 0 00-.706 1.412 10.36 10.36 0 00-.385 1.508c-.086.47-.129.781-.129.93v.097c0 .193.011.353.033.481.042.107.16.16.352.16h.161c.428 0 .791-.16 1.091-.48a3.5 3.5 0 00.706-1.156c.192-.449.331-.909.417-1.38.085-.47.128-.855.128-1.154v-.193z" fill="#252421"/></svg>