<svg width="94" height="24" fill="none" xmlns="http://www.w3.org/2000/svg"><path d="M8.516 0v2.995c-1.217 0-1.938.058-2.162.175-.214.107-.321.423-.321.95v.613h2.483V7.8H7.114v15.85H1.212V7.8H0V4.733h1.212c0-1.276.044-2.128.132-2.556.088-.429.302-.809.643-1.14.35-.34.837-.599 1.46-.774C4.071.088 5.04 0 6.354 0h2.162zm6.398 11.774H9.378v-1.3c0-1.5.17-2.654.511-3.462.35-.818 1.047-1.54 2.09-2.162 1.041-.624 2.395-.935 4.06-.935 1.996 0 3.5.355 4.514 1.066 1.012.701 1.621 1.568 1.826 2.6.204 1.023.306 3.136.306 6.34v9.728h-5.74v-1.723c-.36.691-.828 1.212-1.403 1.563-.565.34-1.241.511-2.03.511a5.05 5.05 0 01-2.849-.862c-.857-.584-1.285-1.855-1.285-3.812v-1.593c0-1.45.229-2.439.687-2.965.457-.526 1.592-1.14 3.403-1.84 1.938-.76 2.975-1.271 3.111-1.534.137-.263.205-.799.205-1.607 0-1.013-.078-1.67-.234-1.972-.146-.312-.394-.467-.745-.467-.399 0-.647.131-.745.394-.097.253-.146.92-.146 2.001v2.03zm1.87 2.658c-.945.692-1.495 1.271-1.65 1.738-.147.468-.22 1.14-.22 2.016 0 1.003.063 1.65.19 1.943.136.292.4.438.789.438.37 0 .608-.112.716-.336.116-.233.175-.837.175-1.811v-3.988zM30.72 4.265l-.103 1.782c.429-.71.95-1.241 1.563-1.592.623-.36 1.34-.54 2.147-.54 1.013 0 1.841.238 2.484.716.642.477 1.056 1.08 1.241 1.81.185.722.278 1.93.278 3.624v13.584h-5.901V10.225c0-1.334-.044-2.147-.132-2.44-.088-.291-.331-.437-.73-.437-.42 0-.682.17-.79.51-.106.332-.16 1.228-.16 2.689v13.102h-5.901V4.265h6.003zm15.483 0l-.102 1.84c.458-.73 1.003-1.275 1.636-1.635.633-.37 1.354-.555 2.162-.555 1.578 0 2.82.73 3.725 2.19.496-.73 1.056-1.275 1.68-1.635a3.987 3.987 0 012.074-.555c1.003 0 1.83.243 2.483.73.662.487 1.086 1.086 1.271 1.797.185.701.278 1.845.278 3.433v13.774h-5.726V11.014c0-1.656-.059-2.678-.176-3.068-.107-.399-.365-.598-.774-.598-.419 0-.691.194-.818.584-.117.39-.175 1.417-.175 3.082v12.635h-5.726V11.335c0-1.899-.05-3.038-.147-3.418-.087-.38-.34-.57-.76-.57a.873.873 0 00-.671.307 1.134 1.134 0 00-.307.73c-.02.283-.029.892-.029 1.827v13.438h-5.726V4.265h5.828zM69.531 0v3.082h-6.076V0h6.076zm0 4.265V23.65h-6.076V4.265h6.076zM77.74 0v23.65h-6.076V0h6.077zm14.842 4.265l-2.396 7.728 3.112 11.656h-5.683l-1.84-8.443v8.443h-5.902V0h5.902v9.933l1.84-5.668h4.967z" fill="#252421"/></svg>