<svg width="125" height="32" fill="none" xmlns="http://www.w3.org/2000/svg"><path d="M11.355 0v3.993c-1.623 0-2.584.078-2.883.233-.285.143-.428.565-.428 1.266v.818h3.31v4.09H9.486v21.133H1.617V10.4H0V6.31h1.617c0-1.7.058-2.837.175-3.408.117-.571.402-1.078.857-1.52C3.116.929 3.765.585 4.596.352 5.427.117 6.72 0 8.472 0h2.883zm8.531 15.698h-7.382v-1.733c0-2 .227-3.538.682-4.616.467-1.09 1.396-2.052 2.785-2.883 1.39-.83 3.194-1.246 5.414-1.246 2.662 0 4.668.474 6.018 1.422 1.35.934 2.162 2.09 2.435 3.466.273 1.364.41 4.181.41 8.453v12.972h-7.655v-2.299c-.48.922-1.104 1.617-1.87 2.084-.753.455-1.655.682-2.707.682a6.733 6.733 0 01-3.798-1.15c-1.143-.778-1.714-2.473-1.714-5.083v-2.122c0-1.935.305-3.253.915-3.954.61-.701 2.123-1.52 4.538-2.454 2.584-1.013 3.967-1.695 4.149-2.045.182-.35.273-1.065.273-2.143 0-1.35-.104-2.226-.312-2.629-.195-.415-.526-.623-.993-.623-.533 0-.864.175-.994.526-.13.337-.194 1.227-.194 2.668v2.707zm2.493 3.545c-1.26.922-1.994 1.694-2.201 2.318-.195.623-.292 1.519-.292 2.687 0 1.338.084 2.201.253 2.59.182.39.532.585 1.052.585.493 0 .811-.15.954-.448.156-.312.234-1.117.234-2.415v-5.317zM40.96 5.687l-.137 2.376c.571-.948 1.266-1.655 2.084-2.123.83-.48 1.785-.72 2.863-.72 1.35 0 2.454.318 3.31.954.858.636 1.41 1.441 1.657 2.415.246.961.37 2.571.37 4.83v18.114h-7.869v-17.9c0-1.778-.059-2.862-.175-3.252-.117-.39-.442-.584-.974-.584-.558 0-.909.227-1.052.681-.143.442-.214 1.636-.214 3.584v17.47h-7.869V5.688h8.005zm20.644 0l-.136 2.454c.61-.974 1.337-1.7 2.181-2.181.844-.494 1.805-.74 2.883-.74 2.103 0 3.759.974 4.967 2.921.662-.974 1.408-1.7 2.24-2.181.83-.494 1.752-.74 2.765-.74 1.337 0 2.441.324 3.311.974.883.649 1.448 1.447 1.694 2.395.247.935.37 2.46.37 4.577v18.367h-7.634V14.685c0-2.207-.078-3.57-.234-4.09-.143-.532-.487-.798-1.032-.798-.559 0-.922.26-1.091.779-.156.52-.234 1.889-.234 4.11v16.847H64.02v-16.42c0-2.531-.064-4.05-.194-4.557-.117-.506-.455-.76-1.013-.76-.35 0-.65.137-.896.41a1.51 1.51 0 00-.409.974c-.026.376-.039 1.188-.039 2.434v17.919h-7.635V5.687h7.771zM92.709 0v4.11h-8.103V0h8.103zm0 5.687v25.846h-8.103V5.687h8.103zM103.654 0v31.533h-8.102V0h8.102zm19.788 5.687l-3.194 10.303 4.149 15.543h-7.577l-2.454-11.258v11.258h-7.868V0h7.868v13.244l2.454-7.557h6.622z" fill="#fff"/></svg>